<svg xmlns="http://www.w3.org/2000/svg" xmlns:xlink="http://www.w3.org/1999/xlink" width="500" zoomAndPan="magnify" viewBox="0 0 375 374.999991" height="500" preserveAspectRatio="xMidYMid meet" version="1.0"><defs><g/><clipPath id="18b3cbbee2"><path d="M 10 322 L 14 322 L 14 327.875 L 10 327.875 Z M 10 322 " clip-rule="nonzero"/></clipPath><clipPath id="990c479bae"><path d="M 169 120 L 257.4375 120 L 257.4375 213 L 169 213 Z M 169 120 " clip-rule="nonzero"/></clipPath><clipPath id="7f3087ed53"><path d="M 176 6.125 L 202 6.125 L 202 78 L 176 78 Z M 176 6.125 " clip-rule="nonzero"/></clipPath></defs><path fill="#78078b" d="M 159.570312 155.039062 C 160.738281 153.910156 161.910156 152.800781 163.082031 151.71875 C 162.976562 151.574219 162.871094 151.429688 162.769531 151.285156 C 161.703125 152.195312 160.507812 153.25 159.179688 154.472656 C 159.191406 154.492188 159.203125 154.507812 159.214844 154.527344 L 159.570312 155.039062 " fill-opacity="1" fill-rule="nonzero"/><path fill="#78078b" d="M 162.210938 153.203125 C 162.058594 153 161.90625 152.800781 161.753906 152.601562 C 160.640625 153.363281 160.050781 153.722656 160.050781 153.722656 C 160.75 153.585938 161.472656 153.410156 162.210938 153.203125 " fill-opacity="1" fill-rule="nonzero"/><g clip-path="url(#18b3cbbee2)"><path fill="#78078b" d="M 12.105469 322.742188 C 11.421875 324.382812 10.738281 326.050781 10.050781 327.738281 C 10.601562 327.789062 11.152344 327.835938 11.703125 327.882812 C 12.371094 326.203125 13.039062 324.527344 13.71875 322.84375 C 13.179688 322.8125 12.640625 322.777344 12.105469 322.742188 " fill-opacity="1" fill-rule="nonzero"/></g><g clip-path="url(#990c479bae)"><path fill="#78078b" d="M 257.054688 177.6875 L 257.085938 177.414062 L 257.152344 176.863281 C 257.171875 176.675781 257.199219 176.492188 257.214844 176.3125 L 257.25 175.757812 L 257.285156 175.207031 C 257.296875 175.023438 257.316406 174.839844 257.3125 174.65625 L 257.324219 173.558594 C 257.328125 173.46875 257.328125 173.375 257.328125 173.285156 L 257.316406 173.011719 L 257.296875 172.464844 C 257.28125 172.101562 257.273438 171.738281 257.238281 171.378906 L 257.140625 170.300781 C 257.128906 170.121094 257.097656 169.945312 257.074219 169.765625 L 257.003906 169.230469 C 256.917969 168.515625 256.773438 167.820312 256.644531 167.117188 L 256.597656 166.855469 L 256.539062 166.597656 L 256.417969 166.078125 C 256.339844 165.738281 256.261719 165.386719 256.175781 165.046875 L 255.894531 164.03125 L 255.757812 163.523438 C 255.707031 163.355469 255.652344 163.191406 255.601562 163.023438 C 255.386719 162.359375 255.183594 161.6875 254.9375 161.039062 L 254.585938 160.0625 C 254.464844 159.738281 254.332031 159.417969 254.203125 159.101562 C 253.175781 156.539062 251.976562 154.089844 250.667969 151.730469 L 250.175781 150.847656 L 250.050781 150.625 L 249.921875 150.410156 L 249.667969 149.976562 L 248.894531 148.675781 L 248.628906 148.25 C 248.269531 147.6875 247.917969 147.117188 247.558594 146.554688 C 247.1875 146 246.820312 145.445312 246.453125 144.894531 C 244.957031 142.695312 243.394531 140.558594 241.78125 138.484375 C 241.382812 137.964844 240.96875 137.457031 240.558594 136.941406 L 239.949219 136.171875 L 239.324219 135.414062 C 238.90625 134.914062 238.488281 134.410156 238.074219 133.90625 C 237.648438 133.410156 237.222656 132.914062 236.800781 132.421875 L 236.164062 131.679688 L 235.515625 130.953125 C 235.085938 130.464844 234.65625 129.980469 234.222656 129.496094 C 233.789062 129.015625 233.347656 128.542969 232.914062 128.0625 L 232.253906 127.347656 L 231.925781 126.992188 L 231.59375 126.640625 C 229.585938 124.5 227.542969 122.410156 225.472656 120.363281 C 224.632812 122.074219 223.78125 123.796875 222.917969 125.53125 C 223.480469 126.113281 224.042969 126.703125 224.601562 127.296875 L 225.332031 128.070312 L 225.695312 128.457031 L 226.058594 128.847656 C 226.539062 129.371094 227.015625 129.894531 227.5 130.414062 L 227.859375 130.808594 L 228.214844 131.203125 L 228.925781 132 C 229.394531 132.53125 229.875 133.058594 230.335938 133.597656 C 234.070312 137.886719 237.648438 142.34375 240.847656 147.046875 C 242.449219 149.398438 243.953125 151.808594 245.3125 154.285156 C 246.675781 156.761719 247.890625 159.304688 248.878906 161.90625 C 248.945312 162.066406 249 162.234375 249.058594 162.394531 L 249.230469 162.886719 L 249.402344 163.375 L 249.488281 163.621094 L 249.566406 163.867188 C 249.769531 164.527344 249.988281 165.183594 250.152344 165.847656 L 250.285156 166.347656 C 250.332031 166.511719 250.378906 166.675781 250.414062 166.84375 L 250.636719 167.839844 L 250.691406 168.089844 L 250.734375 168.339844 L 250.914062 169.339844 L 250.9375 169.46875 L 250.984375 169.84375 L 251.117188 170.84375 L 251.199219 171.84375 L 251.21875 172.09375 C 251.226562 172.175781 251.226562 172.257812 251.230469 172.339844 L 251.246094 172.839844 L 251.265625 173.335938 C 251.265625 173.503906 251.257812 173.667969 251.257812 173.832031 L 251.25 174.328125 L 251.246094 174.574219 C 251.242188 174.65625 251.234375 174.738281 251.230469 174.820312 L 251.160156 175.804688 L 251.039062 176.773438 C 251.023438 176.9375 250.992188 177.097656 250.964844 177.253906 L 250.875 177.738281 C 250.382812 180.285156 249.414062 182.722656 247.972656 184.914062 C 247.253906 186.015625 246.425781 187.058594 245.515625 188.046875 C 245.285156 188.289062 245.0625 188.542969 244.816406 188.777344 L 244.453125 189.132812 C 244.332031 189.25 244.214844 189.371094 244.085938 189.484375 L 243.328125 190.171875 L 242.539062 190.832031 C 241.46875 191.699219 240.335938 192.511719 239.15625 193.273438 L 238.261719 193.835938 C 237.960938 194.019531 237.652344 194.195312 237.347656 194.371094 C 237.042969 194.558594 236.730469 194.722656 236.417969 194.894531 C 236.105469 195.066406 235.796875 195.238281 235.476562 195.398438 C 234.214844 196.066406 232.90625 196.671875 231.578125 197.25 C 230.253906 197.832031 228.894531 198.355469 227.519531 198.859375 C 225.132812 199.726562 222.699219 200.488281 220.238281 201.164062 C 217.777344 201.839844 215.289062 202.433594 212.785156 202.960938 C 207.773438 204.019531 202.707031 204.808594 197.628906 205.425781 C 189.75 206.382812 181.847656 206.929688 173.984375 207.207031 C 172.503906 209.160156 171.019531 211.070312 169.523438 212.941406 C 170.207031 212.9375 170.890625 212.929688 171.570312 212.917969 C 174.476562 212.878906 177.390625 212.800781 180.320312 212.675781 C 183.246094 212.554688 186.175781 212.386719 189.117188 212.167969 C 192.0625 211.953125 195.011719 211.6875 197.964844 211.355469 C 200.917969 211.027344 203.882812 210.640625 206.84375 210.167969 C 209.804688 209.699219 212.769531 209.160156 215.730469 208.511719 L 216.839844 208.269531 L 217.949219 208.007812 L 218.503906 207.878906 L 219.058594 207.746094 L 220.167969 207.46875 L 221.273438 207.179688 L 221.828125 207.035156 L 222.382812 206.882812 L 223.488281 206.574219 L 224.589844 206.246094 L 225.144531 206.082031 L 225.691406 205.910156 L 226.792969 205.566406 L 227.890625 205.199219 C 228.074219 205.136719 228.257812 205.078125 228.4375 205.015625 L 228.984375 204.820312 C 230.445312 204.3125 231.894531 203.75 233.335938 203.148438 C 236.21875 201.941406 239.058594 200.546875 241.785156 198.855469 C 242.125 198.640625 242.46875 198.433594 242.804688 198.210938 L 243.808594 197.535156 C 244.46875 197.066406 245.132812 196.597656 245.769531 196.085938 C 247.054688 195.082031 248.296875 193.984375 249.460938 192.792969 C 250.617188 191.59375 251.699219 190.292969 252.660156 188.890625 C 253.625 187.488281 254.472656 185.984375 255.160156 184.402344 C 255.304688 184.058594 255.449219 183.714844 255.589844 183.367188 L 255.964844 182.308594 C 255.996094 182.21875 256.027344 182.132812 256.054688 182.042969 L 256.136719 181.773438 L 256.292969 181.234375 L 256.449219 180.699219 L 256.578125 180.152344 L 256.707031 179.609375 C 256.746094 179.425781 256.789062 179.246094 256.820312 179.0625 L 257.011719 177.964844 C 257.03125 177.871094 257.042969 177.78125 257.054688 177.6875 " fill-opacity="1" fill-rule="nonzero"/></g><g clip-path="url(#7f3087ed53)"><path fill="#78078b" d="M 190.425781 74.300781 C 188 70.28125 185.804688 66.171875 183.941406 61.957031 C 183.011719 59.851562 182.167969 57.714844 181.429688 55.5625 C 180.691406 53.40625 180.054688 51.226562 179.566406 49.027344 C 178.582031 44.632812 178.148438 40.152344 178.523438 35.761719 C 178.714844 33.570312 179.121094 31.410156 179.742188 29.316406 C 180.363281 27.226562 181.203125 25.203125 182.238281 23.292969 C 183.273438 21.378906 184.515625 19.582031 185.902344 17.910156 C 187.292969 16.238281 188.839844 14.699219 190.488281 13.285156 C 192.132812 11.867188 193.878906 10.574219 195.6875 9.382812 C 196.144531 9.089844 196.597656 8.796875 197.054688 8.507812 C 197.519531 8.230469 197.984375 7.957031 198.453125 7.679688 C 198.914062 7.398438 199.390625 7.148438 199.863281 6.886719 C 200.339844 6.628906 200.804688 6.359375 201.289062 6.125 C 199.132812 7.105469 197 8.191406 194.9375 9.425781 C 192.875 10.65625 190.882812 12.046875 189.003906 13.601562 C 188.539062 13.996094 188.082031 14.402344 187.617188 14.804688 C 187.171875 15.222656 186.726562 15.648438 186.28125 16.074219 C 186.070312 16.292969 185.859375 16.515625 185.644531 16.738281 L 185.324219 17.074219 C 185.214844 17.183594 185.109375 17.292969 185.011719 17.410156 C 184.804688 17.644531 184.601562 17.878906 184.398438 18.109375 L 184.09375 18.460938 C 183.988281 18.574219 183.898438 18.699219 183.800781 18.820312 C 182.234375 20.742188 180.859375 22.851562 179.738281 25.113281 C 178.621094 27.378906 177.785156 29.796875 177.203125 32.289062 C 177.160156 32.449219 177.132812 32.605469 177.105469 32.761719 L 177.007812 33.234375 L 176.914062 33.703125 L 176.867188 33.941406 L 176.828125 34.179688 C 176.734375 34.8125 176.617188 35.445312 176.558594 36.089844 C 176.523438 36.410156 176.484375 36.730469 176.453125 37.050781 C 176.429688 37.375 176.40625 37.695312 176.382812 38.019531 L 176.347656 38.5 C 176.339844 38.664062 176.332031 38.824219 176.328125 38.984375 C 176.320312 39.308594 176.308594 39.632812 176.296875 39.957031 C 176.25 42.546875 176.457031 45.152344 176.839844 47.738281 C 176.878906 48.0625 176.941406 48.382812 176.992188 48.707031 C 177.050781 49.027344 177.105469 49.351562 177.160156 49.675781 C 177.222656 49.996094 177.289062 50.316406 177.355469 50.636719 C 177.417969 50.957031 177.476562 51.28125 177.554688 51.601562 C 177.707031 52.238281 177.84375 52.882812 178.011719 53.515625 C 178.09375 53.835938 178.175781 54.15625 178.257812 54.472656 C 178.347656 54.789062 178.4375 55.105469 178.527344 55.425781 C 179.964844 60.492188 181.988281 65.425781 184.339844 70.226562 C 185.558594 72.710938 186.875 75.15625 188.265625 77.570312 C 189.054688 76.59375 189.847656 75.621094 190.648438 74.660156 C 190.574219 74.542969 190.496094 74.417969 190.425781 74.300781 " fill-opacity="1" fill-rule="nonzero"/></g><path fill="#78078b" d="M 109.933594 208.882812 C 109.308594 208.925781 108.683594 208.984375 108.058594 209.039062 C 105.566406 209.261719 103.082031 209.558594 100.609375 209.953125 C 98.136719 210.347656 95.683594 210.835938 93.253906 211.453125 C 92.644531 211.601562 92.042969 211.773438 91.4375 211.941406 L 90.988281 212.066406 L 90.535156 212.203125 L 89.636719 212.476562 C 89.335938 212.566406 89.039062 212.671875 88.742188 212.769531 L 87.851562 213.070312 L 86.964844 213.394531 C 86.667969 213.5 86.375 213.605469 86.082031 213.726562 L 85.207031 214.074219 C 84.914062 214.191406 84.625 214.320312 84.335938 214.445312 L 83.902344 214.632812 L 83.6875 214.726562 L 83.472656 214.828125 L 82.617188 215.230469 C 81.480469 215.785156 80.359375 216.367188 79.277344 217.027344 L 78.871094 217.269531 C 78.734375 217.355469 78.601562 217.441406 78.46875 217.527344 C 78.203125 217.699219 77.933594 217.871094 77.667969 218.046875 L 76.886719 218.589844 L 76.691406 218.726562 L 76.5 218.871094 L 76.121094 219.160156 C 75.105469 219.925781 74.128906 220.75 73.214844 221.644531 C 72.300781 222.539062 71.445312 223.488281 70.65625 224.496094 C 69.867188 225.503906 69.160156 226.574219 68.53125 227.683594 C 67.269531 229.902344 66.347656 232.292969 65.777344 234.730469 C 65.199219 237.167969 64.9375 239.640625 64.933594 242.085938 C 64.925781 244.527344 65.148438 246.9375 65.546875 249.296875 C 66.335938 254.011719 67.753906 258.511719 69.46875 262.808594 C 71.195312 267.109375 73.226562 271.214844 75.4375 275.164062 C 77.648438 279.113281 80.042969 282.902344 82.558594 286.558594 C 85.078125 290.210938 87.707031 293.730469 90.472656 297.09375 C 87.632812 293.234375 84.957031 289.207031 82.417969 285.035156 C 79.886719 280.859375 77.507812 276.53125 75.375 272.039062 C 73.25 267.542969 71.359375 262.878906 69.945312 258.039062 C 69.242188 255.617188 68.652344 253.15625 68.25 250.664062 C 67.847656 248.167969 67.621094 245.640625 67.652344 243.121094 C 67.6875 240.601562 67.984375 238.085938 68.632812 235.667969 C 69.277344 233.25 70.28125 230.941406 71.636719 228.847656 C 72.992188 226.753906 74.699219 224.890625 76.652344 223.292969 C 77.625 222.492188 78.660156 221.757812 79.738281 221.078125 C 80.820312 220.40625 81.949219 219.792969 83.105469 219.230469 L 83.980469 218.820312 C 84.273438 218.6875 84.574219 218.5625 84.867188 218.433594 C 85.019531 218.371094 85.164062 218.300781 85.316406 218.242188 L 85.765625 218.0625 L 86.21875 217.882812 C 86.371094 217.824219 86.519531 217.761719 86.675781 217.707031 L 87.59375 217.375 C 87.746094 217.316406 87.898438 217.265625 88.054688 217.214844 L 88.519531 217.058594 C 89.136719 216.847656 89.765625 216.664062 90.394531 216.476562 C 92.914062 215.738281 95.503906 215.175781 98.132812 214.726562 C 100.757812 214.277344 103.425781 213.957031 106.117188 213.734375 C 107.308594 213.632812 108.5 213.554688 109.699219 213.488281 C 109.804688 211.964844 109.929688 210.429688 110.082031 208.871094 C 110.03125 208.875 109.980469 208.878906 109.933594 208.882812 " fill-opacity="1" fill-rule="nonzero"/><path fill="#78078b" d="M 207.214844 147.527344 C 207.214844 147.527344 189.199219 161.058594 170.855469 149.570312 C 170.855469 149.570312 192.738281 149.757812 207.214844 147.527344 Z M 190.199219 176.148438 C 189.777344 176.386719 189.164062 176.714844 188.382812 177.105469 C 187.605469 177.496094 186.660156 177.945312 185.582031 178.414062 C 185.3125 178.527344 185.035156 178.648438 184.75 178.769531 C 184.46875 178.890625 184.179688 179.015625 183.882812 179.140625 C 183.285156 179.386719 182.660156 179.636719 182.007812 179.878906 C 180.707031 180.363281 179.300781 180.832031 177.816406 181.242188 C 177.632812 181.289062 177.449219 181.34375 177.257812 181.394531 C 177.074219 181.441406 176.886719 181.492188 176.699219 181.539062 C 176.324219 181.636719 175.945312 181.730469 175.566406 181.820312 C 174.796875 181.996094 174.019531 182.152344 173.226562 182.28125 C 171.648438 182.535156 170.023438 182.691406 168.390625 182.691406 C 166.761719 182.695312 165.117188 182.542969 163.507812 182.199219 C 163.792969 182.117188 164.074219 182.035156 164.363281 181.957031 L 165.226562 181.71875 L 166.945312 181.253906 C 168.09375 180.949219 169.234375 180.644531 170.375 180.34375 C 171.519531 180.050781 172.652344 179.753906 173.789062 179.46875 C 174.9375 179.191406 176.082031 178.917969 177.222656 178.652344 C 178.363281 178.382812 179.5 178.121094 180.636719 177.863281 L 182.335938 177.480469 C 182.617188 177.417969 182.90625 177.359375 183.191406 177.300781 L 184.046875 177.121094 C 186.324219 176.652344 188.589844 176.203125 190.84375 175.777344 C 190.84375 175.777344 190.617188 175.917969 190.199219 176.148438 Z M 101.203125 289.421875 C 100.851562 290.039062 100.066406 290.398438 99.296875 290.304688 C 98.019531 290.148438 97.3125 288.953125 97.902344 287.933594 C 98.253906 287.320312 99.039062 286.960938 99.808594 287.054688 C 101.085938 287.210938 101.792969 288.40625 101.203125 289.421875 Z M 254.140625 72.539062 C 254.101562 72.371094 254.011719 72.203125 253.871094 72.050781 C 253.734375 71.898438 253.550781 71.761719 253.320312 71.660156 C 251.949219 71.042969 250.527344 70.503906 249.066406 70.046875 L 248.789062 69.960938 C 248.695312 69.929688 248.597656 69.90625 248.5 69.878906 L 247.925781 69.71875 L 247.34375 69.558594 C 247.246094 69.53125 247.148438 69.507812 247.054688 69.484375 L 246.773438 69.414062 C 246.390625 69.320312 246.007812 69.222656 245.625 69.136719 C 245.246094 69.046875 244.867188 68.96875 244.488281 68.886719 C 241.460938 68.253906 238.460938 67.871094 235.484375 67.699219 C 232.507812 67.53125 229.550781 67.570312 226.625 67.78125 C 225.898438 67.839844 225.164062 67.898438 224.433594 67.972656 C 223.71875 68.050781 222.996094 68.136719 222.273438 68.230469 C 221.539062 68.320312 220.835938 68.4375 220.121094 68.554688 L 219.046875 68.734375 L 218.507812 68.828125 L 217.980469 68.929688 C 217.980469 68.929688 217.679688 68.976562 217.101562 69.105469 C 216.816406 69.171875 216.460938 69.257812 216.042969 69.367188 C 215.835938 69.421875 215.609375 69.480469 215.367188 69.550781 C 215.132812 69.621094 214.882812 69.703125 214.621094 69.789062 C 213.566406 70.136719 212.261719 70.59375 210.839844 71.253906 C 210.480469 71.417969 210.109375 71.589844 209.730469 71.773438 C 209.535156 71.863281 209.34375 71.960938 209.148438 72.058594 C 208.957031 72.15625 208.765625 72.261719 208.570312 72.363281 C 207.789062 72.785156 206.964844 73.253906 206.113281 73.773438 C 205.28125 74.300781 204.425781 74.878906 203.542969 75.507812 C 203.097656 75.816406 202.667969 76.15625 202.230469 76.503906 C 201.789062 76.851562 201.347656 77.214844 200.902344 77.589844 C 200.679688 77.777344 200.453125 77.964844 200.230469 78.160156 C 200.011719 78.359375 199.792969 78.558594 199.574219 78.765625 C 199.136719 79.171875 198.695312 79.59375 198.253906 80.03125 C 198.03125 80.25 197.8125 80.472656 197.589844 80.699219 C 197.535156 80.753906 197.480469 80.8125 197.425781 80.867188 C 197.371094 80.925781 197.316406 80.984375 197.265625 81.042969 C 197.160156 81.160156 197.050781 81.277344 196.941406 81.394531 C 196.515625 81.867188 196.085938 82.355469 195.660156 82.851562 C 194.792969 83.847656 193.988281 84.929688 193.179688 86.0625 C 192.980469 86.34375 192.777344 86.628906 192.582031 86.917969 C 192.480469 87.066406 192.378906 87.207031 192.285156 87.355469 C 192.1875 87.507812 192.09375 87.65625 192 87.804688 C 191.621094 88.40625 191.246094 89.023438 190.878906 89.652344 C 190.695312 89.96875 190.511719 90.289062 190.328125 90.609375 C 190.242188 90.773438 190.148438 90.929688 190.0625 91.09375 C 189.976562 91.261719 189.894531 91.425781 189.804688 91.59375 C 189.46875 92.261719 189.132812 92.941406 188.808594 93.636719 C 188.648438 93.984375 188.488281 94.332031 188.328125 94.6875 C 188.25 94.863281 188.167969 95.039062 188.09375 95.222656 C 188.023438 95.402344 187.949219 95.585938 187.875 95.769531 C 187.585938 96.5 187.304688 97.242188 187.03125 98 C 187.03125 98 186.921875 97.738281 186.878906 97.078125 C 186.859375 96.746094 186.859375 96.316406 186.902344 95.769531 C 186.921875 95.492188 186.953125 95.191406 187 94.855469 C 187.023438 94.6875 187.046875 94.511719 187.078125 94.328125 C 187.09375 94.234375 187.109375 94.140625 187.125 94.042969 C 187.144531 93.949219 187.164062 93.851562 187.183594 93.753906 C 187.355469 92.957031 187.597656 92.023438 187.945312 90.933594 C 188.117188 90.386719 188.316406 89.804688 188.546875 89.179688 C 188.789062 88.558594 189.0625 87.898438 189.375 87.191406 C 189.683594 86.484375 190.03125 85.738281 190.417969 84.941406 C 190.824219 84.15625 191.273438 83.320312 191.773438 82.4375 C 192.019531 81.996094 192.28125 81.542969 192.554688 81.074219 C 192.835938 80.613281 193.140625 80.140625 193.453125 79.652344 C 193.765625 79.167969 194.09375 78.667969 194.433594 78.15625 C 194.605469 77.902344 194.78125 77.640625 194.960938 77.382812 C 195.144531 77.121094 195.335938 76.859375 195.53125 76.59375 L 194.808594 76.945312 C 194.683594 77.003906 194.570312 77.066406 194.453125 77.125 L 194.101562 77.308594 L 192.695312 78.046875 L 191.292969 78.796875 C 191.058594 78.921875 190.832031 79.050781 190.605469 79.179688 L 189.925781 79.574219 L 188.5625 80.363281 L 187.882812 80.765625 L 187.546875 80.96875 C 187.429688 81.035156 187.316406 81.101562 187.207031 81.167969 C 186.332031 81.71875 185.453125 82.273438 184.574219 82.839844 L 183.921875 83.261719 L 183.59375 83.472656 L 183.277344 83.691406 L 182.003906 84.5625 L 180.734375 85.445312 C 180.3125 85.742188 179.886719 86.039062 179.484375 86.34375 C 178.667969 86.949219 177.851562 87.5625 177.039062 88.179688 L 176.429688 88.644531 L 176.128906 88.878906 L 175.832031 89.113281 L 174.65625 90.0625 C 168.382812 95.148438 162.761719 100.695312 157.730469 106.46875 C 157.625 106.585938 157.523438 106.707031 157.425781 106.828125 L 157.125 107.191406 C 156.925781 107.429688 156.730469 107.675781 156.539062 107.921875 C 156.15625 108.414062 155.777344 108.910156 155.414062 109.414062 C 155.050781 109.917969 154.695312 110.429688 154.355469 110.945312 C 154.269531 111.074219 154.1875 111.203125 154.105469 111.332031 L 153.867188 111.726562 C 153.707031 111.984375 153.550781 112.25 153.398438 112.515625 C 152.785156 113.574219 152.21875 114.652344 151.695312 115.746094 L 151.503906 116.15625 C 151.441406 116.292969 151.382812 116.429688 151.324219 116.570312 C 151.207031 116.84375 151.089844 117.125 150.980469 117.398438 C 150.757812 117.957031 150.546875 118.515625 150.347656 119.078125 C 150.148438 119.640625 149.960938 120.207031 149.785156 120.773438 C 149.699219 121.054688 149.613281 121.339844 149.535156 121.625 C 149.492188 121.765625 149.453125 121.90625 149.414062 122.050781 L 149.3125 122.476562 C 149.035156 123.625 148.8125 124.777344 148.636719 125.929688 C 148.550781 126.503906 148.476562 127.082031 148.417969 127.660156 C 148.386719 127.945312 148.363281 128.234375 148.335938 128.523438 C 148.316406 128.8125 148.304688 129.101562 148.292969 129.394531 C 148.242188 130.550781 148.25 131.707031 148.308594 132.851562 C 148.34375 133.550781 148.390625 134.234375 148.445312 134.90625 C 148.472656 135.238281 148.5 135.566406 148.535156 135.894531 C 148.542969 135.972656 148.550781 136.054688 148.558594 136.136719 C 148.570312 136.214844 148.578125 136.296875 148.589844 136.378906 C 148.609375 136.535156 148.628906 136.699219 148.648438 136.855469 C 148.820312 138.121094 149.027344 139.300781 149.277344 140.367188 C 149.78125 142.496094 150.457031 144.164062 151.335938 145.128906 C 151.335938 145.128906 151.085938 145.023438 150.625 144.617188 C 150.164062 144.207031 149.496094 143.503906 148.671875 142.300781 C 147.84375 141.09375 146.859375 139.390625 145.78125 136.96875 C 145.511719 136.363281 145.234375 135.710938 144.953125 135.011719 C 144.675781 134.3125 144.386719 133.5625 144.113281 132.761719 C 143.558594 131.160156 142.996094 129.347656 142.4375 127.289062 C 136.746094 136.449219 132.101562 145.742188 128.289062 154.832031 C 124.476562 163.929688 121.492188 172.839844 119.105469 181.320312 C 118.902344 182.035156 118.722656 182.753906 118.558594 183.46875 C 118.394531 184.191406 118.242188 184.910156 118.128906 185.636719 C 117.898438 187.089844 117.738281 188.546875 117.65625 190.003906 C 117.613281 190.734375 117.59375 191.464844 117.589844 192.191406 C 117.585938 192.554688 117.589844 192.917969 117.597656 193.285156 C 117.601562 193.464844 117.605469 193.648438 117.613281 193.828125 L 117.644531 194.375 C 117.734375 195.828125 117.898438 197.277344 118.136719 198.714844 C 118.328125 199.839844 118.535156 200.9375 118.757812 201.976562 C 118.871094 202.496094 118.988281 203 119.109375 203.488281 C 119.234375 203.976562 119.367188 204.449219 119.503906 204.898438 C 120.046875 206.703125 120.660156 208.171875 121.34375 209.101562 C 121.34375 209.101562 120.597656 208.226562 119.390625 206.566406 C 118.789062 205.734375 118.070312 204.710938 117.277344 203.496094 C 117.082031 203.195312 116.878906 202.878906 116.671875 202.554688 C 116.46875 202.230469 116.257812 201.890625 116.046875 201.542969 C 115.625 200.847656 115.1875 200.105469 114.742188 199.320312 C 114.269531 201.535156 113.878906 203.707031 113.5 205.828125 C 113.308594 206.886719 113.125 207.933594 112.949219 208.964844 C 112.863281 209.480469 112.773438 209.996094 112.6875 210.503906 C 112.613281 211.015625 112.535156 211.523438 112.457031 212.027344 C 112.15625 214.039062 111.871094 215.996094 111.613281 217.890625 C 111.546875 218.367188 111.484375 218.835938 111.421875 219.300781 C 111.40625 219.417969 111.390625 219.53125 111.375 219.652344 C 111.359375 219.765625 111.347656 219.882812 111.332031 219.996094 C 111.304688 220.230469 111.277344 220.460938 111.25 220.691406 C 111.144531 221.609375 111.039062 222.511719 110.941406 223.398438 C 110.742188 225.171875 110.5625 226.878906 110.398438 228.519531 C 110.378906 228.722656 110.359375 228.925781 110.339844 229.128906 C 110.320312 229.332031 110.304688 229.535156 110.289062 229.734375 C 110.253906 230.136719 110.222656 230.535156 110.1875 230.925781 C 110.128906 231.714844 110.066406 232.484375 110.007812 233.230469 C 109.894531 234.734375 109.796875 236.160156 109.707031 237.511719 C 109.6875 237.847656 109.667969 238.179688 109.644531 238.511719 C 109.625 238.839844 109.605469 239.160156 109.589844 239.480469 C 109.5625 240.117188 109.535156 240.738281 109.507812 241.335938 C 109.503906 241.4375 109.484375 241.539062 109.453125 241.636719 L 108.011719 245.976562 L 107.113281 248.691406 L 106.941406 249.234375 L 106.597656 250.324219 L 104.523438 256.851562 L 104.179688 257.941406 L 104.007812 258.484375 L 103.84375 259.03125 L 102.363281 263.902344 L 102.445312 263.929688 C 102.253906 264.554688 102.0625 265.179688 101.867188 265.808594 C 101.234375 267.878906 100.628906 269.929688 100.050781 271.957031 C 99.910156 272.460938 99.765625 272.96875 99.625 273.46875 C 99.492188 273.972656 99.355469 274.476562 99.222656 274.976562 C 98.957031 275.976562 98.699219 276.96875 98.449219 277.957031 C 98.246094 278.753906 98.050781 279.546875 97.855469 280.332031 L 92.285156 299.695312 C 92.160156 300.125 92.800781 300.390625 93.101562 300.03125 C 96.503906 295.941406 103.582031 290.796875 105.582031 289.378906 C 105.816406 289.210938 105.761719 288.890625 105.488281 288.78125 C 103.625 288.054688 102.160156 286.835938 101.035156 285.539062 C 103.074219 278.640625 105.109375 271.996094 107.132812 265.597656 L 107.183594 265.613281 L 108.59375 261.089844 C 108.945312 259.945312 109.320312 258.8125 109.691406 257.675781 L 110.800781 254.265625 L 111.910156 250.851562 C 112.089844 250.285156 112.289062 249.71875 112.480469 249.152344 L 113.058594 247.453125 L 114.210938 244.050781 L 114.789062 242.351562 L 115.078125 241.503906 L 115.222656 241.078125 L 115.371094 240.652344 L 117.773438 233.878906 L 118.371094 232.183594 L 118.996094 230.492188 L 121.488281 223.742188 C 121.589844 223.460938 121.699219 223.183594 121.808594 222.902344 L 122.132812 222.0625 L 122.78125 220.378906 L 124.078125 217.015625 L 124.726562 215.335938 C 124.945312 214.777344 125.171875 214.21875 125.394531 213.660156 L 128.09375 206.964844 L 130.890625 200.300781 C 134.683594 191.433594 138.71875 182.640625 143.074219 173.957031 C 144.136719 171.78125 145.285156 169.632812 146.402344 167.472656 L 147.242188 165.855469 L 147.347656 165.652344 L 147.457031 165.449219 L 147.675781 165.050781 L 148.113281 164.246094 L 149.859375 161.03125 L 150.296875 160.230469 C 150.441406 159.960938 150.585938 159.691406 150.738281 159.429688 L 153.796875 154.050781 L 153.914062 153.851562 L 154.382812 153.0625 L 155.320312 151.480469 L 156.261719 149.902344 L 156.730469 149.109375 L 156.964844 148.714844 C 157.042969 148.585938 157.125 148.453125 157.207031 148.324219 L 159.152344 145.191406 L 160.128906 143.628906 C 160.457031 143.109375 160.796875 142.59375 161.132812 142.078125 L 163.148438 138.976562 L 163.402344 138.589844 L 163.664062 138.207031 L 164.183594 137.4375 L 166.277344 134.375 L 166.535156 133.992188 C 166.625 133.863281 166.71875 133.738281 166.804688 133.609375 L 167.347656 132.851562 L 169.511719 129.824219 C 169.601562 129.695312 169.691406 129.570312 169.785156 129.445312 L 170.0625 129.070312 L 170.625 128.324219 L 172.867188 125.332031 L 174.027344 123.859375 L 175.1875 122.382812 L 175.765625 121.644531 C 175.863281 121.523438 175.957031 121.398438 176.058594 121.277344 L 176.359375 120.914062 L 178.761719 118.011719 L 179.058594 117.648438 C 179.160156 117.527344 179.265625 117.40625 179.367188 117.289062 L 179.988281 116.574219 L 181.230469 115.148438 L 181.851562 114.433594 L 182.160156 114.074219 C 182.269531 113.957031 182.375 113.839844 182.484375 113.722656 L 183.765625 112.320312 C 187.191406 108.578125 190.804688 104.953125 194.652344 101.5 L 194.402344 101.730469 C 194.316406 101.804688 194.230469 101.882812 194.152344 101.960938 L 193.660156 102.4375 L 192.675781 103.382812 L 191.695312 104.328125 L 191.449219 104.5625 L 191.328125 104.683594 L 191.210938 104.804688 L 190.734375 105.289062 L 188.835938 107.222656 L 188.363281 107.707031 L 187.902344 108.199219 L 186.988281 109.183594 L 186.070312 110.171875 L 185.609375 110.664062 C 185.535156 110.746094 185.457031 110.828125 185.382812 110.914062 L 185.160156 111.164062 L 183.386719 113.171875 L 182.503906 114.179688 C 182.210938 114.515625 181.929688 114.859375 181.644531 115.199219 L 179.933594 117.242188 C 175.414062 122.722656 171.253906 128.390625 167.371094 134.179688 C 163.484375 139.972656 159.875 145.886719 156.464844 151.875 L 155.191406 154.121094 L 154.871094 154.683594 L 154.5625 155.25 L 153.949219 156.382812 L 152.71875 158.644531 L 152.101562 159.777344 L 151.796875 160.34375 L 151.5 160.914062 L 149.128906 165.476562 L 148.835938 166.046875 L 148.6875 166.332031 L 148.542969 166.621094 L 146.832031 170.066406 L 145.695312 172.363281 C 145.597656 172.554688 145.507812 172.746094 145.417969 172.9375 L 145.140625 173.515625 L 144.59375 174.671875 C 143.863281 176.214844 143.128906 177.753906 142.40625 179.296875 L 140.296875 183.949219 L 139.769531 185.113281 C 139.59375 185.5 139.414062 185.886719 139.246094 186.273438 L 138.234375 188.613281 L 137.21875 190.953125 L 136.457031 192.707031 L 136.332031 192.996094 L 136.210938 193.289062 L 134.257812 197.988281 L 133.285156 200.339844 L 132.347656 202.699219 L 130.472656 207.421875 L 130.238281 208.011719 C 130.164062 208.207031 130.089844 208.40625 130.011719 208.601562 L 129.5625 209.789062 L 128.664062 212.160156 L 127.761719 214.53125 C 127.464844 215.320312 127.15625 216.109375 126.875 216.902344 L 125.144531 221.664062 L 124.28125 224.042969 C 124.132812 224.4375 124 224.839844 123.859375 225.234375 L 123.445312 226.429688 L 121.785156 231.207031 L 121.164062 233 L 120.964844 233.597656 L 120.164062 235.996094 L 118.574219 240.789062 L 118.175781 241.984375 L 117.027344 245.59375 C 116.703125 246.617188 117.917969 247.476562 118.808594 246.855469 C 120.171875 245.902344 121.511719 244.953125 122.828125 244.011719 C 123.492188 243.539062 124.15625 243.070312 124.8125 242.605469 C 125.46875 242.136719 126.121094 241.667969 126.765625 241.207031 C 128.058594 240.277344 129.332031 239.347656 130.582031 238.425781 C 131.203125 237.964844 131.824219 237.503906 132.441406 237.046875 C 133.0625 236.589844 133.679688 236.136719 134.292969 235.683594 C 135.519531 234.773438 136.722656 233.871094 137.90625 232.96875 C 138.492188 232.519531 139.082031 232.070312 139.664062 231.621094 C 140.246094 231.175781 140.816406 230.722656 141.398438 230.28125 C 143.714844 228.507812 145.949219 226.75 148.109375 225.007812 C 156.796875 218.054688 164.433594 211.421875 171.160156 205.066406 C 169.058594 205.371094 167.132812 205.617188 165.386719 205.808594 C 163.648438 206.007812 162.082031 206.152344 160.671875 206.253906 C 157.859375 206.453125 155.675781 206.46875 154.023438 206.390625 C 152.371094 206.3125 151.242188 206.144531 150.53125 205.996094 C 149.820312 205.84375 149.523438 205.710938 149.523438 205.710938 C 152.761719 206.582031 156.390625 206.183594 160.007812 205.132812 C 160.460938 205.003906 160.910156 204.859375 161.363281 204.710938 C 161.585938 204.636719 161.8125 204.558594 162.039062 204.476562 C 162.265625 204.398438 162.492188 204.316406 162.71875 204.234375 C 163.625 203.902344 164.527344 203.542969 165.417969 203.15625 C 167.195312 202.386719 168.921875 201.523438 170.554688 200.632812 C 170.964844 200.410156 171.371094 200.191406 171.773438 199.972656 C 172.175781 199.753906 172.570312 199.53125 172.957031 199.308594 C 173.726562 198.867188 174.472656 198.429688 175.183594 197.996094 C 175.890625 197.566406 176.5625 197.144531 177.195312 196.742188 C 177.828125 196.335938 178.421875 195.957031 178.976562 195.601562 C 181.1875 194.175781 182.640625 193.136719 182.964844 192.964844 C 183 192.945312 183.042969 192.953125 183.074219 192.980469 C 183.117188 193.015625 183.175781 193.015625 183.207031 192.980469 C 188.925781 186.871094 193.804688 181.027344 197.992188 175.410156 C 202.179688 169.792969 205.683594 164.402344 208.664062 159.191406 C 208.847656 158.863281 209.03125 158.535156 209.210938 158.207031 C 209.394531 157.886719 209.574219 157.570312 209.757812 157.25 C 210.113281 156.605469 210.464844 155.964844 210.800781 155.316406 C 210.886719 155.15625 210.972656 154.992188 211.054688 154.832031 L 211.179688 154.589844 L 211.304688 154.351562 C 211.476562 154.039062 211.640625 153.722656 211.804688 153.40625 C 212.136719 152.777344 212.453125 152.144531 212.765625 151.503906 C 212.839844 151.347656 212.917969 151.1875 212.992188 151.027344 C 213.070312 150.871094 213.148438 150.71875 213.230469 150.5625 C 213.382812 150.25 213.535156 149.941406 213.683594 149.628906 C 213.988281 149.007812 214.277344 148.378906 214.5625 147.75 C 214.632812 147.59375 214.703125 147.441406 214.777344 147.289062 C 214.847656 147.136719 214.917969 146.980469 214.988281 146.832031 C 215.132812 146.523438 215.273438 146.21875 215.410156 145.910156 C 215.550781 145.601562 215.683594 145.292969 215.820312 144.984375 C 215.886719 144.828125 215.953125 144.671875 216.015625 144.519531 C 216.082031 144.363281 216.148438 144.203125 216.21875 144.054688 C 218.335938 139.171875 220.113281 134.421875 221.746094 129.765625 C 221.054688 129.835938 220.375 129.902344 219.710938 129.96875 C 219.042969 130.054688 218.390625 130.136719 217.75 130.21875 C 217.425781 130.257812 217.105469 130.300781 216.789062 130.339844 C 216.628906 130.363281 216.472656 130.382812 216.316406 130.402344 C 216.234375 130.410156 216.15625 130.421875 216.082031 130.429688 C 216 130.441406 215.925781 130.453125 215.847656 130.464844 C 215.222656 130.558594 214.613281 130.652344 214.019531 130.742188 C 213.417969 130.832031 212.828125 130.921875 212.257812 131.003906 C 212.183594 131.015625 212.113281 131.023438 212.039062 131.035156 C 211.96875 131.050781 211.898438 131.0625 211.828125 131.074219 C 211.6875 131.097656 211.546875 131.121094 211.40625 131.148438 C 211.125 131.195312 210.847656 131.242188 210.574219 131.289062 C 210.019531 131.378906 209.480469 131.46875 208.957031 131.558594 C 208.695312 131.601562 208.433594 131.640625 208.175781 131.683594 C 208.046875 131.707031 207.917969 131.726562 207.792969 131.746094 C 207.664062 131.769531 207.539062 131.792969 207.414062 131.8125 C 206.417969 131.996094 205.460938 132.164062 204.554688 132.316406 C 204.097656 132.394531 203.65625 132.46875 203.226562 132.539062 C 203.007812 132.574219 202.800781 132.617188 202.59375 132.652344 C 202.386719 132.6875 202.179688 132.722656 201.980469 132.761719 C 201.175781 132.902344 200.410156 133.03125 199.695312 133.144531 C 199.332031 133.199219 198.988281 133.25 198.648438 133.304688 C 198.480469 133.328125 198.316406 133.351562 198.152344 133.375 C 197.992188 133.398438 197.832031 133.421875 197.675781 133.445312 C 195.191406 133.835938 193.410156 134.007812 192.257812 134.066406 C 192.113281 134.074219 191.980469 134.082031 191.855469 134.085938 C 191.734375 134.09375 191.617188 134.097656 191.515625 134.101562 C 191.304688 134.109375 191.136719 134.109375 191 134.109375 C 190.726562 134.109375 190.597656 134.101562 190.597656 134.101562 C 190.824219 134.070312 191.054688 134.039062 191.289062 134 C 191.40625 133.980469 191.519531 133.957031 191.640625 133.9375 C 191.757812 133.910156 191.878906 133.890625 192 133.867188 C 192.484375 133.773438 192.976562 133.660156 193.480469 133.53125 C 194.488281 133.265625 195.53125 132.929688 196.597656 132.535156 C 196.730469 132.484375 196.867188 132.4375 197.003906 132.386719 C 197.140625 132.339844 197.277344 132.289062 197.414062 132.242188 C 197.6875 132.140625 197.960938 132.035156 198.238281 131.925781 C 198.792969 131.714844 199.347656 131.484375 199.910156 131.246094 C 201.023438 130.757812 202.1875 130.277344 203.335938 129.742188 C 203.625 129.613281 203.914062 129.476562 204.203125 129.339844 C 204.34375 129.273438 204.488281 129.207031 204.632812 129.136719 L 204.847656 129.035156 L 205.066406 128.933594 C 205.652344 128.671875 206.234375 128.402344 206.816406 128.125 C 207.105469 127.988281 207.394531 127.847656 207.683594 127.710938 L 208.117188 127.5 L 208.332031 127.394531 C 208.402344 127.359375 208.476562 127.328125 208.550781 127.292969 C 209.132812 127.027344 209.710938 126.753906 210.285156 126.480469 C 210.570312 126.34375 210.855469 126.207031 211.136719 126.070312 C 211.277344 126 211.421875 125.933594 211.5625 125.863281 C 211.703125 125.792969 211.84375 125.734375 211.988281 125.664062 C 212.558594 125.40625 213.117188 125.148438 213.667969 124.886719 C 213.945312 124.753906 214.21875 124.625 214.492188 124.496094 L 214.691406 124.398438 L 214.898438 124.304688 C 215.035156 124.242188 215.171875 124.183594 215.304688 124.125 C 215.847656 123.878906 216.378906 123.640625 216.898438 123.398438 C 217.585938 123.070312 218.261719 122.753906 218.898438 122.378906 C 219.214844 122.195312 219.527344 122 219.828125 121.796875 L 220.054688 121.640625 L 220.28125 121.496094 C 220.429688 121.394531 220.578125 121.292969 220.722656 121.191406 C 221.015625 120.980469 221.300781 120.761719 221.574219 120.535156 C 221.714844 120.421875 221.851562 120.304688 221.984375 120.183594 L 222.183594 120.007812 L 222.386719 119.835938 C 222.914062 119.371094 223.414062 118.863281 223.882812 118.324219 C 225.777344 116.21875 227.246094 113.691406 228.351562 110.726562 C 228.574219 110.136719 228.792969 109.554688 229.007812 108.976562 C 229.234375 108.398438 229.460938 107.828125 229.683594 107.261719 C 229.796875 106.972656 229.910156 106.6875 230.023438 106.398438 C 230.140625 106.121094 230.257812 105.839844 230.371094 105.558594 C 230.605469 105 230.839844 104.429688 231.074219 103.871094 C 231.320312 103.316406 231.5625 102.765625 231.804688 102.21875 C 231.863281 102.082031 231.925781 101.941406 231.984375 101.804688 C 232.046875 101.667969 232.109375 101.527344 232.171875 101.394531 C 232.296875 101.125 232.421875 100.855469 232.546875 100.585938 C 232.671875 100.316406 232.800781 100.046875 232.925781 99.78125 C 232.988281 99.648438 233.054688 99.511719 233.117188 99.375 L 233.210938 99.171875 L 233.308594 98.976562 C 233.574219 98.449219 233.835938 97.925781 234.09375 97.402344 C 234.355469 96.875 234.628906 96.371094 234.898438 95.863281 C 235.035156 95.605469 235.171875 95.351562 235.308594 95.097656 C 235.375 94.972656 235.445312 94.847656 235.515625 94.71875 C 235.582031 94.589844 235.652344 94.472656 235.722656 94.347656 C 236.003906 93.855469 236.285156 93.363281 236.566406 92.875 C 236.636719 92.75 236.710938 92.628906 236.78125 92.507812 C 236.851562 92.386719 236.921875 92.269531 236.996094 92.152344 C 237.140625 91.910156 237.285156 91.675781 237.429688 91.4375 C 237.574219 91.203125 237.71875 90.96875 237.867188 90.734375 C 237.9375 90.613281 238.011719 90.496094 238.085938 90.382812 C 238.160156 90.269531 238.234375 90.15625 238.308594 90.039062 C 238.605469 89.585938 238.902344 89.132812 239.199219 88.6875 C 239.347656 88.460938 239.5 88.246094 239.652344 88.027344 C 239.804688 87.808594 239.957031 87.59375 240.105469 87.382812 C 240.261719 87.167969 240.414062 86.953125 240.5625 86.742188 C 240.714844 86.527344 240.871094 86.324219 241.023438 86.121094 C 241.332031 85.710938 241.640625 85.304688 241.949219 84.902344 C 242.257812 84.511719 242.574219 84.125 242.882812 83.746094 C 243.039062 83.554688 243.195312 83.367188 243.347656 83.179688 C 243.503906 82.996094 243.660156 82.816406 243.816406 82.636719 C 244.128906 82.277344 244.4375 81.925781 244.746094 81.582031 C 245.375 80.90625 245.984375 80.246094 246.601562 79.644531 C 246.757812 79.492188 246.90625 79.34375 247.058594 79.191406 C 247.210938 79.046875 247.359375 78.898438 247.511719 78.757812 C 247.816406 78.476562 248.117188 78.203125 248.414062 77.9375 C 250.71875 75.824219 252.625 74.34375 253.773438 73.472656 C 254.105469 73.222656 254.21875 72.882812 254.140625 72.539062 " fill-opacity="1" fill-rule="nonzero"/><g fill="#78078b" fill-opacity="1"><g transform="translate(236.550556, 284.3453)"><g><path d="M 3.09375 -12.21875 C 5.144531 -10.820312 6.890625 -9.851562 8.328125 -9.3125 C 9.773438 -8.78125 11.257812 -8.515625 12.78125 -8.515625 C 14.425781 -8.515625 15.773438 -8.882812 16.828125 -9.625 C 17.878906 -10.375 18.40625 -11.34375 18.40625 -12.53125 C 18.40625 -13.519531 18.03125 -14.363281 17.28125 -15.0625 C 16.539062 -15.757812 15.226562 -16.523438 13.34375 -17.359375 C 11.070312 -18.335938 9.273438 -19.207031 7.953125 -19.96875 C 6.640625 -20.738281 5.570312 -21.535156 4.75 -22.359375 C 3.6875 -23.421875 2.863281 -24.617188 2.28125 -25.953125 C 1.707031 -27.296875 1.421875 -28.691406 1.421875 -30.140625 C 1.421875 -31.742188 1.726562 -33.234375 2.34375 -34.609375 C 2.957031 -35.984375 3.8125 -37.175781 4.90625 -38.1875 C 6 -39.195312 7.273438 -39.988281 8.734375 -40.5625 C 10.203125 -41.144531 11.796875 -41.4375 13.515625 -41.4375 C 14.378906 -41.4375 15.160156 -41.375 15.859375 -41.25 C 16.566406 -41.125 17.5 -40.878906 18.65625 -40.515625 L 19.140625 -42.171875 L 26.484375 -40.453125 L 23.53125 -30.375 C 19.695312 -32.5625 16.441406 -33.65625 13.765625 -33.65625 C 12.734375 -33.65625 11.878906 -33.363281 11.203125 -32.78125 C 10.523438 -32.207031 10.1875 -31.488281 10.1875 -30.625 C 10.1875 -29.757812 10.535156 -29 11.234375 -28.34375 C 11.929688 -27.6875 13.226562 -26.925781 15.125 -26.0625 C 19.195312 -24.289062 22.019531 -22.703125 23.59375 -21.296875 C 26.101562 -19.117188 27.359375 -16.34375 27.359375 -12.96875 C 27.359375 -11.113281 26.984375 -9.382812 26.234375 -7.78125 C 25.492188 -6.175781 24.484375 -4.785156 23.203125 -3.609375 C 21.929688 -2.441406 20.421875 -1.515625 18.671875 -0.828125 C 16.929688 -0.148438 15.050781 0.1875 13.03125 0.1875 C 11.007812 0.1875 8.847656 -0.148438 6.546875 -0.828125 C 4.242188 -1.515625 2.101562 -2.429688 0.125 -3.578125 Z M 3.09375 -12.21875 "/></g></g></g><g fill="#78078b" fill-opacity="1"><g transform="translate(265.258184, 284.3453)"><g><path d="M 22.421875 -41.1875 L 31.0625 -41.1875 L 31.0625 -13.765625 C 31.0625 -12.617188 31 -11.582031 30.875 -10.65625 C 30.75 -9.726562 30.5625 -8.875 30.3125 -8.09375 C 30.070312 -7.3125 29.734375 -6.566406 29.296875 -5.859375 C 28.867188 -5.160156 28.34375 -4.484375 27.71875 -3.828125 C 25.125 -0.941406 21.6875 0.5 17.40625 0.5 C 13.125 0.5 9.648438 -0.984375 6.984375 -3.953125 C 6.359375 -4.648438 5.835938 -5.335938 5.421875 -6.015625 C 5.015625 -6.703125 4.6875 -7.425781 4.4375 -8.1875 C 4.195312 -8.945312 4.015625 -9.78125 3.890625 -10.6875 C 3.765625 -11.59375 3.703125 -12.617188 3.703125 -13.765625 L 3.703125 -32.546875 L -0.125 -32.546875 L 2.40625 -41.1875 L 12.34375 -41.1875 L 12.34375 -13.15625 C 12.34375 -11.59375 12.796875 -10.367188 13.703125 -9.484375 C 14.609375 -8.597656 15.863281 -8.15625 17.46875 -8.15625 C 19.039062 -8.15625 20.257812 -8.617188 21.125 -9.546875 C 21.988281 -10.472656 22.421875 -11.71875 22.421875 -13.28125 Z M 22.421875 -41.1875 "/></g></g></g><g fill="#78078b" fill-opacity="1"><g transform="translate(300.016017, 284.3453)"><g><path d="M 4.078125 -32.546875 L 0.3125 -32.546875 L 2.84375 -41.1875 L 12.171875 -41.1875 L 20.75 -28.90625 L 29.203125 -41.1875 L 37.234375 -41.1875 L 37.234375 0 L 28.59375 0 L 28.59375 -26.984375 L 20.625 -15.6875 L 12.78125 -26.796875 L 12.78125 0 L 4.078125 0 Z M 4.078125 -32.546875 "/></g></g></g><g fill="#78078b" fill-opacity="1"><g transform="translate(44.021061, 358.202044)"><g><path d="M 4.078125 -32.546875 L 0.3125 -32.546875 L 2.84375 -41.1875 L 14.015625 -41.1875 C 16.566406 -41.1875 18.664062 -40.925781 20.3125 -40.40625 C 21.957031 -39.894531 23.484375 -39.023438 24.890625 -37.796875 C 26.367188 -36.472656 27.519531 -34.863281 28.34375 -32.96875 C 29.164062 -31.082031 29.578125 -29.066406 29.578125 -26.921875 C 29.578125 -25.191406 29.273438 -23.523438 28.671875 -21.921875 C 28.078125 -20.316406 27.25 -18.9375 26.1875 -17.78125 C 25.726562 -17.289062 25.21875 -16.859375 24.65625 -16.484375 C 24.101562 -16.117188 23.335938 -15.644531 22.359375 -15.0625 L 31 0 L 20.625 0 L 13.703125 -13.703125 L 12.78125 -13.703125 L 12.78125 0 L 4.078125 0 Z M 14.515625 -21.421875 C 15.460938 -21.421875 16.253906 -21.503906 16.890625 -21.671875 C 17.523438 -21.835938 18.113281 -22.109375 18.65625 -22.484375 C 19.351562 -22.972656 19.914062 -23.628906 20.34375 -24.453125 C 20.78125 -25.273438 21 -26.140625 21 -27.046875 C 21 -27.910156 20.789062 -28.742188 20.375 -29.546875 C 19.96875 -30.347656 19.410156 -31.015625 18.703125 -31.546875 C 18.171875 -31.921875 17.625 -32.179688 17.0625 -32.328125 C 16.507812 -32.472656 15.703125 -32.546875 14.640625 -32.546875 L 12.78125 -32.546875 L 12.78125 -21.421875 Z M 14.515625 -21.421875 "/></g></g></g><g fill="#78078b" fill-opacity="1"><g transform="translate(102.305877, 358.202044)"><g><path d="M 4.140625 -32.546875 L -0.125 -32.546875 L 2.46875 -41.1875 L 12.78125 -41.1875 L 12.78125 0 L 4.140625 0 Z M 4.140625 -32.546875 "/></g></g></g><g fill="#78078b" fill-opacity="1"><g transform="translate(145.217733, 358.202044)"><g><path d="M 13.15625 -32.546875 L 1.671875 -32.546875 L 4.203125 -41.1875 L 25.875 -41.1875 L 12.90625 -8.703125 L 25.5 -8.703125 L 22.96875 0 L 0.1875 0 Z M 13.15625 -32.546875 "/></g></g></g><g fill="#78078b" fill-opacity="1"><g transform="translate(197.575617, 358.202044)"><g><path d="M 13.15625 -32.546875 L 1.671875 -32.546875 L 4.203125 -41.1875 L 25.875 -41.1875 L 12.90625 -8.703125 L 25.5 -8.703125 L 22.96875 0 L 0.1875 0 Z M 13.15625 -32.546875 "/></g></g></g><g fill="#78078b" fill-opacity="1"><g transform="translate(249.933501, 358.202044)"><g><path d="M 4.140625 -32.546875 L 0.3125 -32.546875 L 2.90625 -41.1875 L 20.625 -41.1875 L 21.0625 -42.609375 L 28.90625 -42.609375 L 25.875 -32.546875 L 12.71875 -32.546875 L 12.71875 -25.3125 L 27.296875 -25.3125 L 24.703125 -16.734375 L 12.71875 -16.734375 L 12.71875 -8.703125 L 27.296875 -8.703125 L 24.703125 0 L 4.140625 0 Z M 4.140625 -32.546875 "/></g></g></g><g fill="#78078b" fill-opacity="1"><g transform="translate(306.119185, 358.202044)"><g><path d="M 4.078125 -32.546875 L 0.3125 -32.546875 L 2.84375 -41.1875 L 14.015625 -41.1875 C 16.566406 -41.1875 18.664062 -40.925781 20.3125 -40.40625 C 21.957031 -39.894531 23.484375 -39.023438 24.890625 -37.796875 C 26.367188 -36.472656 27.519531 -34.863281 28.34375 -32.96875 C 29.164062 -31.082031 29.578125 -29.066406 29.578125 -26.921875 C 29.578125 -25.191406 29.273438 -23.523438 28.671875 -21.921875 C 28.078125 -20.316406 27.25 -18.9375 26.1875 -17.78125 C 25.726562 -17.289062 25.21875 -16.859375 24.65625 -16.484375 C 24.101562 -16.117188 23.335938 -15.644531 22.359375 -15.0625 L 31 0 L 20.625 0 L 13.703125 -13.703125 L 12.78125 -13.703125 L 12.78125 0 L 4.078125 0 Z M 14.515625 -21.421875 C 15.460938 -21.421875 16.253906 -21.503906 16.890625 -21.671875 C 17.523438 -21.835938 18.113281 -22.109375 18.65625 -22.484375 C 19.351562 -22.972656 19.914062 -23.628906 20.34375 -24.453125 C 20.78125 -25.273438 21 -26.140625 21 -27.046875 C 21 -27.910156 20.789062 -28.742188 20.375 -29.546875 C 19.96875 -30.347656 19.410156 -31.015625 18.703125 -31.546875 C 18.171875 -31.921875 17.625 -32.179688 17.0625 -32.328125 C 16.507812 -32.472656 15.703125 -32.546875 14.640625 -32.546875 L 12.78125 -32.546875 L 12.78125 -21.421875 Z M 14.515625 -21.421875 "/></g></g></g></svg>